<?xml version="1.0" encoding="utf-8"?>
<!-- Generator: Adobe Illustrator 17.1.0, SVG Export Plug-In . SVG Version: 6.00 Build 0)  -->
<!DOCTYPE svg PUBLIC "-//W3C//DTD SVG 1.1//EN" "http://www.w3.org/Graphics/SVG/1.1/DTD/svg11.dtd">
<svg version="1.1" id="Layer_1" xmlns="http://www.w3.org/2000/svg" xmlns:xlink="http://www.w3.org/1999/xlink" x="0px" y="0px"
	 viewBox="0 0 282 119" enable-background="new 0 0 282 119" xml:space="preserve">
<circle fill="#BD2E2B" cx="45.28" cy="38.249" r="24.317"/>
<circle fill="#86412B" cx="105.409" cy="38.249" r="24.317"/>
<circle fill="#4F7F70" cx="167.306" cy="38.249" r="24.317"/>
<circle fill="#9BBDAA" cx="229.203" cy="38.249" r="24.317"/>
<path fill="#FFFFFF" d="M53.244,33.725c0,0,6.003-2.453,6.861-2.484c0.858-0.029,0.681,0.224-0.131,0.549
	c-0.81,0.326-6.193,2.61-6.193,2.61s-0.438,0.124-0.295,0.446c0.146,0.322,0.188,0.092,0.59,0.019s7.256-2.833,7.235-2.298
	c-0.019,0.535-3.196,1.666-3.765,1.882c-0.57,0.216-3.183,1.307-3.183,1.307s-0.365,0.091-0.233,0.385
	c0.131,0.293,0.288,0.188,0.457,0.113c0.168-0.075,7.344-2.767,7.268-2.418c-0.076,0.35-3.162,1.614-4.274,2.107
	c-1.111,0.495-3.164,1.161-3.004,1.509c0.159,0.352,0.483,0.174,0.833-0.018c0.35-0.19,6.934-2.514,6.977-2.289
	c0.046,0.227-0.509,0.541-1.102,0.771c-0.594,0.229-7.647,3.252-7.647,3.252s-0.577,0.396-1.286,0.044
	c-0.71-0.352-1.649-0.566-2.339-0.295c-0.691,0.269-9.8,4.807-11.821,5.986c-2.019,1.176-5.803,3.416-6.452,2.489
	c-0.648-0.927-0.767-1.531-0.767-1.531s-0.445-0.644,1.102-1.329c1.545-0.688,16.108-5.935,17.068-6.546
	c0.959-0.614,1.393-1.369,1.469-2.056C50.688,35.241,52.012,34.263,53.244,33.725z"/>
<path fill="#FFFFFF" d="M29.152,31.991c0,0-0.955,1.141,0.787,3.468c1.739,2.326,4.792,4.043,7.211,2.745
	c1.009-0.544,2.739,0.736,2.739,0.736s9.76,6.954,11.134,7.703c1.371,0.751,2.718,1.832,3.242,1.434
	c0.524-0.398,1.392-1.6-0.038-2.457c-1.431-0.859-10.338-5.416-10.338-5.416s-5.188-3.069-5.186-3.552
	c0.001-0.487,0.078-2.727-1.699-4.035C35.231,31.308,31.074,29.793,29.152,31.991z"/>
<g>
	<polygon fill="#FFFFFF" points="123.164,33.751 116.718,38.676 124.211,41.664 	"/>
	<path fill="#86412B" d="M116.799,38.934l-0.211-0.495l8.533-4.697c0.13-0.073,0.295-0.026,0.368,0.106
		c0.072,0.131,0.024,0.295-0.107,0.367l-6.158,3.391l6.326-1.99c0.142-0.045,0.293,0.036,0.339,0.177
		c0.045,0.144-0.034,0.295-0.177,0.339L116.799,38.934z"/>
	<path fill="#86412B" d="M125.443,40.703c-0.018,0-0.037-0.003-0.055-0.008l-8.722-1.754c-0.133-0.026-0.226-0.149-0.216-0.285
		c0.008-0.136,0.118-0.242,0.254-0.251l9.103-0.522c0.005,0,0.01,0,0.016,0c0.142,0,0.261,0.113,0.269,0.256
		c0.009,0.148-0.105,0.276-0.255,0.284l-7.002,0.403l6.662,1.341c0.146,0.031,0.241,0.172,0.211,0.319
		C125.681,40.612,125.568,40.703,125.443,40.703z"/>
	<path fill="#FFFFFF" d="M86.469,41.46c0,0,11.274-17.714,30.819-2.784C117.288,38.676,104.987,53.236,86.469,41.46z"/>
	<path fill="#86412B" d="M94.307,44.255c-0.093,0-0.187-0.032-0.264-0.097c-0.17-0.146-0.189-0.403-0.045-0.574
		c3.109-3.626,0.166-6.342,0.038-6.456c-0.166-0.149-0.18-0.407-0.032-0.571c0.149-0.166,0.406-0.183,0.572-0.035
		c0.038,0.034,3.673,3.351,0.038,7.592C94.535,44.207,94.421,44.255,94.307,44.255z"/>
	<path fill="#86412B" d="M98.674,44.501c-0.019,0-0.041-0.003-0.062-0.008c-0.146-0.035-0.236-0.18-0.201-0.325l2.278-9.682
		c0.034-0.145,0.181-0.237,0.324-0.199c0.146,0.032,0.236,0.179,0.202,0.325l-2.278,9.68C98.908,44.417,98.797,44.501,98.674,44.501
		z"/>
	<path fill="#86412B" d="M102.281,44.69c-0.02,0-0.042-0.003-0.062-0.007c-0.146-0.036-0.235-0.181-0.201-0.328l2.278-9.681
		c0.034-0.145,0.178-0.238,0.324-0.202c0.146,0.035,0.236,0.181,0.201,0.326l-2.278,9.682
		C102.515,44.606,102.404,44.69,102.281,44.69z"/>
	<path fill="#86412B" d="M105.888,44.69c-0.02,0-0.042-0.003-0.062-0.007c-0.146-0.036-0.236-0.181-0.201-0.328l2.277-9.681
		c0.034-0.145,0.179-0.238,0.325-0.202c0.146,0.035,0.235,0.181,0.201,0.326l-2.278,9.682
		C106.122,44.606,106.012,44.69,105.888,44.69z"/>
	<path fill="#86412B" d="M109.875,43.551c-0.018,0-0.038-0.004-0.056-0.005c-0.146-0.032-0.24-0.175-0.209-0.321l1.519-7.215
		c0.031-0.145,0.175-0.233,0.321-0.209c0.146,0.032,0.239,0.175,0.209,0.322l-1.519,7.212
		C110.112,43.463,109.999,43.551,109.875,43.551z"/>
	<path fill="#86412B" d="M100.952,44.69c-0.124,0-0.235-0.084-0.264-0.209l-2.278-9.682c-0.034-0.145,0.056-0.291,0.201-0.326
		c0.148-0.036,0.291,0.057,0.325,0.202l2.278,9.681c0.034,0.146-0.056,0.291-0.201,0.328
		C100.992,44.687,100.971,44.69,100.952,44.69z"/>
	<path fill="#86412B" d="M104.558,44.501c-0.123,0-0.233-0.084-0.263-0.21l-2.278-9.68c-0.034-0.146,0.055-0.293,0.201-0.325
		c0.146-0.038,0.291,0.054,0.324,0.199l2.278,9.682c0.035,0.145-0.055,0.29-0.201,0.325C104.6,44.498,104.579,44.501,104.558,44.501
		z"/>
	<path fill="#86412B" d="M108.165,44.501c-0.123,0-0.234-0.084-0.263-0.21l-2.278-9.68c-0.034-0.146,0.056-0.293,0.201-0.325
		c0.147-0.038,0.291,0.054,0.324,0.199l2.278,9.682c0.034,0.145-0.056,0.29-0.201,0.325
		C108.206,44.498,108.186,44.501,108.165,44.501z"/>
	<path fill="#86412B" d="M111.392,42.791c-0.124,0-0.237-0.087-0.264-0.214l-1.519-7.213c-0.03-0.148,0.063-0.29,0.209-0.321
		c0.144-0.025,0.289,0.063,0.321,0.209l1.519,7.213c0.031,0.146-0.063,0.289-0.209,0.323
		C111.43,42.788,111.41,42.791,111.392,42.791z"/>
	<path fill="#86412B" d="M91.365,40.703c-0.516,0-0.935-0.42-0.935-0.934c0-0.517,0.419-0.935,0.935-0.935
		c0.515,0,0.935,0.418,0.935,0.935C92.3,40.283,91.881,40.703,91.365,40.703z M91.365,39.374c-0.217,0-0.394,0.176-0.394,0.395
		c0,0.216,0.177,0.392,0.394,0.392c0.217,0,0.394-0.176,0.394-0.392C91.759,39.55,91.582,39.374,91.365,39.374z"/>
</g>
<g>
	<path fill="#FFFFFF" d="M167.736,41.796l-11.781-13.291h23.864L167.736,41.796z M158.823,29.795l8.925,10.07l9.153-10.07H158.823z"
		/>
	<polygon fill="#FFFFFF" points="173.202,52.368 167.909,49.714 162.479,52.368 	"/>
	<rect x="167.153" y="39.636" fill="#FFFFFF" width="1.291" height="11.775"/>
	<g>
		<path fill="#FFFFFF" d="M163.581,33.995l4.16,4.658l3.986-4.385c-1.645-0.196-1.785,0.17-3.369-0.359
			C167.268,33.547,165.451,33.683,163.581,33.995z"/>
	</g>
</g>
<path fill="#FFFFFF" d="M237.544,42.34c-0.438-1.139-1.903-4.559-3.299-9.915c-0.728-2.785-3.679-2.8-3.679-2.8
	s-0.082,0.003-0.214,0.014c0.11-0.865,0.271-2.078,0.343-2.389c0.241-1.065,1.398-1.583,1.398-1.583s-0.329,0-0.723,0
	c-0.247,0-0.315,0-0.33,0c-0.926,0.588-1.179,2.414-1.242,3.659c-1.164-2.908-4.716-3.659-4.716-3.659
	c1.119,3.144,3.267,3.957,4.311,4.17c-0.909,0.289-2.084,0.969-2.508,2.588c-1.395,5.356-2.264,7.562-3.299,9.915
	c-0.492,1.122-1.407,8.89,6.98,9.292C238.95,51.23,238.216,44.085,237.544,42.34z"/>
<g>
	<path fill="#58595B" d="M41.126,103.234v-12.64c0-2.543-1.085-4.114-3.627-4.114c-1.945,0-4.151,1.421-5.161,3.066v13.687h-1.982
		v-12.64c0-2.543-1.047-4.114-3.627-4.114c-1.907,0-4.076,1.458-5.16,3.104v13.649h-1.945V85.171h1.945v2.73
		c0.748-1.159,3.216-3.179,5.833-3.179c2.805,0,4.301,1.646,4.75,3.403c1.009-1.683,3.44-3.403,5.983-3.403
		c3.328,0,4.936,1.87,4.936,5.497v13.014H41.126z"/>
	<path fill="#58595B" d="M51.817,94.184c0-5.273,3.403-9.461,8.676-9.461c5.348,0,8.713,4.188,8.713,9.461s-3.366,9.499-8.713,9.499
		C55.22,103.682,51.817,99.457,51.817,94.184z M67.112,94.184c0-4.002-2.356-7.703-6.619-7.703c-4.188,0-6.582,3.702-6.582,7.703
		c0,4.039,2.393,7.741,6.582,7.741C64.756,101.925,67.112,98.222,67.112,94.184z"/>
	<path fill="#58595B" d="M91.268,103.234v-2.88c-1.271,1.87-3.59,3.329-6.282,3.329c-4.787,0-8.078-3.665-8.078-9.461
		c0-5.722,3.291-9.499,8.078-9.499c2.58,0,4.824,1.309,6.282,3.366V78.29h1.982v24.943H91.268z M91.268,98.709v-8.938
		c-1.047-1.757-3.403-3.291-5.946-3.291c-4.001,0-6.32,3.366-6.32,7.741s2.319,7.703,6.32,7.703
		C87.865,101.925,90.221,100.429,91.268,98.709z"/>
	<path fill="#58595B" d="M101.998,94.184c0-5.236,3.702-9.461,8.713-9.461c5.497,0,8.526,4.375,8.526,9.573v0.524H104.13
		c0.187,3.927,2.805,7.18,7.068,7.18c2.281,0,4.375-0.86,5.909-2.506l1.009,1.271c-1.795,1.87-4.076,2.917-7.067,2.917
		C105.775,103.682,101.998,99.755,101.998,94.184z M110.674,86.405c-4.263,0-6.394,3.74-6.544,6.881h13.126
		C117.218,90.22,115.199,86.405,110.674,86.405z"/>
	<path fill="#58595B" d="M127.985,103.234V85.171h1.945v3.104c1.533-2.02,3.59-3.478,6.095-3.478v2.132
		c-0.336-0.075-0.598-0.075-0.972-0.075c-1.832,0-4.3,1.645-5.123,3.216v13.164H127.985z"/>
	<path fill="#58595B" d="M155.769,103.234V91.005c0-3.478-1.758-4.525-4.375-4.525c-2.319,0-4.712,1.458-5.871,3.104v13.649h-1.945
		V85.171h1.945v2.73c1.309-1.571,3.889-3.179,6.506-3.179c3.665,0,5.684,1.795,5.684,5.871v12.64H155.769z"/>
	<path fill="#BCBEC0" d="M189.012,103.234v-12.64c0-2.543-1.085-4.114-3.627-4.114c-1.945,0-4.151,1.421-5.161,3.066v13.687h-1.982
		v-12.64c0-2.543-1.047-4.114-3.627-4.114c-1.907,0-4.076,1.458-5.16,3.104v13.649h-1.945V85.171h1.945v2.73
		c0.748-1.159,3.216-3.179,5.833-3.179c2.805,0,4.301,1.646,4.749,3.403c1.01-1.683,3.441-3.403,5.984-3.403
		c3.328,0,4.936,1.87,4.936,5.497v13.014H189.012z"/>
	<path fill="#BCBEC0" d="M199.703,94.184c0-5.236,3.702-9.461,8.713-9.461c5.497,0,8.526,4.375,8.526,9.573v0.524h-15.108
		c0.187,3.927,2.805,7.18,7.068,7.18c2.281,0,4.375-0.86,5.909-2.506l1.009,1.271c-1.795,1.87-4.076,2.917-7.067,2.917
		C203.48,103.682,199.703,99.755,199.703,94.184z M208.379,86.405c-4.263,0-6.394,3.74-6.544,6.881h13.126
		C214.923,90.22,212.904,86.405,208.379,86.405z"/>
	<path fill="#BCBEC0" d="M237.881,103.234V91.005c0-3.478-1.758-4.525-4.375-4.525c-2.319,0-4.712,1.458-5.871,3.104v13.649h-1.945
		V85.171h1.945v2.73c1.308-1.571,3.889-3.179,6.506-3.179c3.665,0,5.684,1.795,5.684,5.871v12.64H237.881z"/>
	<path fill="#BCBEC0" d="M261.813,103.234v-2.655c-1.496,1.645-3.889,3.104-6.507,3.104c-3.702,0-5.684-1.72-5.684-5.796V85.171
		h1.945v12.266c0,3.515,1.757,4.487,4.375,4.487c2.318,0,4.674-1.384,5.871-2.992V85.171h1.944v18.062H261.813z"/>
</g>
</svg>
